<?xml version="1.0" encoding="UTF-8" standalone="no"?>
<!-- Created with Inkscape (http://www.inkscape.org/) -->

<svg
   xmlns:dc="http://purl.org/dc/elements/1.1/"
   xmlns:cc="http://creativecommons.org/ns#"
   xmlns:rdf="http://www.w3.org/1999/02/22-rdf-syntax-ns#"
   xmlns:svg="http://www.w3.org/2000/svg"
   xmlns="http://www.w3.org/2000/svg"
   xmlns:sodipodi="http://sodipodi.sourceforge.net/DTD/sodipodi-0.dtd"
   xmlns:inkscape="http://www.inkscape.org/namespaces/inkscape"
   width="327.0361mm"
   height="327.03598mm"
   viewBox="0 0 327.0361 327.03598"
   version="1.1"
   id="svg848"
   inkscape:version="0.92.2 (5c3e80d, 2017-08-06)"
   sodipodi:docname="icon.svg">
  <defs
     id="defs842">
    <filter
       inkscape:collect="always"
       style="color-interpolation-filters:sRGB"
       id="filter945"
       x="-0.071999989"
       width="1.1440001"
       y="-0.072000012"
       height="1.1440001">
      <feGaussianBlur
         inkscape:collect="always"
         stdDeviation="8.5761193"
         id="feGaussianBlur947" />
    </filter>
  </defs>
  <sodipodi:namedview
     id="base"
     pagecolor="#ffffff"
     bordercolor="#666666"
     borderopacity="1.0"
     inkscape:pageopacity="0.0"
     inkscape:pageshadow="2"
     inkscape:zoom="0.25425461"
     inkscape:cx="1139.1556"
     inkscape:cy="483.86177"
     inkscape:document-units="px"
     inkscape:current-layer="layer1"
     showgrid="false"
     fit-margin-top="0"
     fit-margin-left="0"
     fit-margin-right="0"
     fit-margin-bottom="0"
     inkscape:window-width="1366"
     inkscape:window-height="705"
     inkscape:window-x="-8"
     inkscape:window-y="-8"
     inkscape:window-maximized="1" />
  <metadata
     id="metadata845">
    <rdf:RDF>
      <cc:Work
         rdf:about="">
        <dc:format>image/svg+xml</dc:format>
        <dc:type
           rdf:resource="http://purl.org/dc/dcmitype/StillImage" />
        <dc:title></dc:title>
      </cc:Work>
    </rdf:RDF>
  </metadata>
  <g
     inkscape:label="Ebene 1"
     inkscape:groupmode="layer"
     id="layer1"
     transform="translate(156.89556,71.815117)">
    <g
       id="g954"
       transform="translate(-112.33487,-31.499921)"
       inkscape:export-xdpi="26.655415"
       inkscape:export-ydpi="26.655415">
      <path
         style="opacity:1;fill:#1a1a1a;fill-opacity:0.4642857;stroke:none;stroke-width:10.12573433;stroke-linejoin:miter;stroke-miterlimit:4;stroke-dasharray:none;stroke-dashoffset:0;stroke-opacity:1;paint-order:markers fill stroke;filter:url(#filter945)"
         d="M 118.9581,-19.732509 A 142.93544,142.93544 0 0 0 -23.978001,123.20206 142.93544,142.93544 0 0 0 118.9581,266.1381 142.93544,142.93544 0 0 0 261.8927,123.20206 142.93544,142.93544 0 0 0 118.9581,-19.732509 Z m 0,18.5760247 A 124.359,124.359 0 0 1 243.31668,123.20206 124.359,124.359 0 0 1 118.9581,247.56209 124.359,124.359 0 0 1 -5.4005397,123.20206 124.359,124.359 0 0 1 118.9581,-1.1564843 Z"
         id="path835"
         inkscape:connector-curvature="0" />
      <path
         style="fill:#000000;fill-opacity:0.5;stroke-width:0.26458332"
         inkscape:connector-curvature="0"
         id="path4"
         d="m 207.57948,91.003017 2.24896,1.613958 h 2.09021 V 88.56885 l 6.61458,-0.635 6.29709,4.683125 h 10.34521 l 0.71437,-0.661458 c -1.03187,-3.4925 -2.19604,-6.905625 -3.51896,-10.265833 l -6.74687,0.105833 -3.38667,-3.730625 -0.66146,-5.979583 -3.46604,1.905 -1.85208,7.3025 -5.00063,-5.318125 -0.21166,-5.027084 -4.84188,-4.153958 -1.77271,-1.772708 h -5.60916 l 1.7727,5.000625 6.74688,3.757083 1.16417,1.243542 -1.45521,0.740833 0.0794,3.96875 -3.28083,1.375833 -2.80458,-0.608541 -1.74625,-2.487084 4.57729,0.238125 1.24354,-1.666875 -10.10708,-6.82625 -0.79375,-2.910416 -4.1275,3.704166 -4.15396,-0.846666 -6.35,8.255 -1.24354,3.227916 -4.07459,0.370417 -6.00604,0.02646 -3.59833,-1.666875 -1.05834,-7.14375 1.29646,-3.386666 6.11188,-1.322917 6.6675,1.322917 0.82021,-3.677709 -2.83105,-0.661458 0.97896,-5.741458 6.69396,-1.058334 4.68313,-6.614582 4.84187,-0.820208 4.36563,0.661458 h 1.61395 l -0.89958,-6.217708 -5.31812,2.143125 -1.87855,-4.656667 -3.09562,-0.423333 -0.58208,-3.175 2.51354,-2.751668 5.97958,-2.354792 1.53458,-2.751666 C 174.2949,11.09885 144.34407,-1.1513577 111.53573,-1.1513577 c -28.4427,0 -54.76875,9.2339588 -76.17354,24.8179167 l 6.53521,-0.05292 2.91042,1.613958 5.50333,1.190625 0.42333,2.169584 8.73125,0.3175 -1.19062,-2.804584 -7.75229,-0.211666 1.82562,-1.719792 -0.635,-2.06375 h -7.01146 l 7.64646,-5.715 h 7.35542 l 3.43958,4.736042 5.715,0.3175 3.43959,-3.33375 2.59291,1.296458 -4.73604,4.630208 c 0,0 -6.56167,0.105834 -6.24417,0.105834 0.3175,0 0.52917,4.524375 0.52917,4.524375 l 7.96396,-0.211667 0.87312,-2.143125 5.50334,-0.3175 0.66146,-3.227917 -3.22792,-0.555625 1.08479,-2.910416 2.48708,-0.740834 8.62542,0.423334 -4.7625,4.312708 0.76729,3.33375 4.94771,0.740833 -0.3175,-6.0325 4.73604,-2.487083 8.41375,-0.978958 12.17084,5.3975 v 4.630208 l 3.88937,0.978958 -1.95792,3.65125 h -5.50333 l -1.64042,4.206875 -12.54124,-2.963333 9.86895,-5.265208 -3.75708,-3.201459 -8.51958,1.084792 -0.74084,0.767292 -0.0265,-0.02646 -0.1323,0.185209 -2.46062,2.54 -4.04813,0.3175 0.3175,2.010833 1.4023,0.582083 -0.0529,0.661459 -3.30729,0.47625 -0.23813,1.905 -3.14854,0.15875 -0.58208,-3.81 -5.66209,1.719791 -11.56229,6.773335 1.29646,4.7625 3.22792,2.116666 6.45583,0.899584 v 7.355416 l 2.98979,-0.47625 2.75167,-5.741458 6.87917,-2.169583 v -8.810625 l 3.81,-2.88396 9.23395,2.169585 -0.66145,5.820833 h 2.48708 l 6.79979,-3.33375 0.3175,7.646458 4.94771,3.01625 -0.21167,4.524375 -4.73604,1.613959 0.3175,1.508124 5.715,2.592916 -0.10583,3.122084 -1.64042,0.132291 c 0,-0.05292 -0.0265,-0.07937 -0.0265,-0.07937 l -7.19667,-2.2225 -0.3175,-2.301875 v 0 l 2.11667,-1.455208 v -2.116666 l -2.27542,-0.582083 -0.55562,1.957917 -3.96875,0.60854 -0.39688,-0.132291 v 0.211666 l -1.37583,0.211667 -1.11125,-2.275416 -1.29646,-0.582083 h -2.83104 l -1.29646,1.058333 v 2.35479 l 2.40771,0.79375 2.38125,0.343958 -0.52916,0.238125 -2.16959,2.407709 -0.9525,-1.217084 -2.11666,-0.555625 -5.74146,5.3975 0.74083,0.608542 -8.46667,4.683125 -7.96396,8.307917 -0.55562,3.704166 -7.99042,5.344584 -3.96875,3.995208 0.44979,7.963963 -5.50333,-2.566464 0.0265,-4.656666 H 38.06098 l -7.91104,3.995206 -3.43958,6.350004 -1.37584,5.02708 2.2225,4.86833 6.24417,0.7673 9.92188,-6.61459 0.87312,3.28083 -3.01625,5.71501 7.54063,1.29645 0.76729,11.66813 10.34521,1.74625 6.56166,-7.59354 7.96396,1.61396 2.80458,3.88937 7.64646,-0.44979 0.21167,-2.24896 4.20688,2.03729 4.73604,7.43479 8.17562,0.10584 3.01625,5.29166 0.44979,6.45583 9.04875,3.43958 11.43,0.10583 3.33375,5.47688 5.05354,1.61396 -0.97895,4.52437 -5.55625,7.03792 -1.61396,15.61042 -5.00063,3.96875 -7.43479,-0.21167 -2.48708,4.31271 1.82562,8.09625 -8.09625,10.34521 -2.59291,4.73604 -7.69938,3.70416 -5.05354,0.7673 -0.21167,2.14312 3.54542,1.03187 -0.42333,2.30188 -3.175,3.06917 1.93145,2.43416 3.83646,0.10584 -0.21166,2.96333 -1.03188,2.91042 -0.3175,2.35479 5.66208,4.78896 -0.76729,2.48708 -7.72583,-0.13229 -7.67292,-6.69396 -5.97958,-10.50396 0.84667,-10.13354 -4.52438,-6.0325 1.82563,-10.23937 -2.69875,-0.74084 v -22.19854 c 0,0 -7.54063,-5.715 -7.96396,-5.715 -0.42334,0 -3.99521,-0.97896 -3.99521,-0.97896 l -0.76729,-4.20687 -9.78959,-12.27667 0.97896,-4.41854 0.3175,-7.22312 6.79979,-4.73604 -0.97895,-8.09625 -9.89542,-0.74083 -7.75229,-8.83708 -5.50334,-1.53459 -3.54541,-0.66146 0.42333,-3.22791 -4.52437,-0.635 v 1.82562 l -11.32417,-2.83104 -4.55083,-6.95854 1.85208,-3.38667 -7.1702096,-10.451034 -1.21708,-7.646462 h -2.91042 l 0.97896,7.434792 4.94771,7.646454 -0.52917,3.01625 -4.15396,-0.60854 -5.15937,-8.810624 V 87.748642 l -5.3975,-2.592917 V 77.77385 C -14.40589,93.357809 -18.0836,110.50281 -18.0836,128.49447 c 0,71.49041 58.15542,129.64583 129.64583,129.64583 40.53417,0 76.75563,-18.70605 100.54167,-47.91605 h -4.28625 v -8.62541 l -4.94771,-6.6675 v -10.34521 l -3.78354,-3.75708 -0.3175,-4.31271 4.78896,-9.15459 -9.10167,-16.0602 1.05833,-10.90083 -8.17562,-0.84666 -3.01625,-3.01625 h -5.50333 l -2.80459,2.59291 h -9.71021 l -0.3175,0.87313 h -5.3975 l -12.32958,-14.15521 0.10583,-10.98021 2.0373,-0.74083 0.76729,-4.20688 h -2.91042 l -1.19062,-4.41854 14.31395,-10.345204 v -7.328959 l 7.01146,-3.889375 2.83104,0.291042 h 5.76792 l 4.52438,-2.434167 14.55208,-1.137708 V 88.0926 Z m -36.3802,-46.222707 1.19062,-1.825625 4.25979,-0.873125 1.05834,5.185833 2.27541,3.65125 1.50813,1.719792 2.75166,1.058333 -2.59291,3.069167 -5.00063,0.47625 h -3.75708 l 0.42333,-4.471459 3.14854,-0.661458 -0.26458,-2.090208 -2.91042,-1.825625 -2.03729,-1.402292 z m -6.985,8.09625 2.59291,-4.153959 3.4925,-0.820208 2.48709,1.084792 -0.23813,2.804583 -5.34458,3.757083 h -3.01625 z m -70.45855,15.927915 -2.69875,0.238125 0.15875,-1.878541 1.21709,-1.508125 1.61396,1.27 z m 9.47209,-3.307291 -1.85209,0.15875 -0.37041,1.772708 -1.42875,0.873125 -2.27542,0.185208 c -0.0794,-0.529166 -0.13229,-0.9525 -0.13229,-0.9525 h -0.87313 v -1.905 h 3.70417 l 0.76729,-1.984375 1.48167,-0.02646 1.69333,0.343958 z" />
      <path
         inkscape:connector-curvature="0"
         id="path817"
         d="M 108.90387,-14.440839 A 142.93544,142.93544 0 0 0 -34.032174,128.49376 142.93544,142.93544 0 0 0 108.90387,271.4298 142.93544,142.93544 0 0 0 251.83847,128.49376 142.93544,142.93544 0 0 0 108.90387,-14.440839 Z m 0,18.5760216 A 124.359,124.359 0 0 1 233.26245,128.49376 124.359,124.359 0 0 1 108.90387,252.85379 124.359,124.359 0 0 1 -15.45471,128.49376 124.359,124.359 0 0 1 108.90387,4.1351826 Z"
         style="opacity:1;fill:#545454;fill-opacity:1;stroke:none;stroke-width:10.12573433;stroke-linejoin:miter;stroke-miterlimit:4;stroke-dasharray:none;stroke-dashoffset:0;stroke-opacity:1;paint-order:markers fill stroke" />
      <path
         inkscape:transform-center-y="-1.926108"
         inkscape:connector-curvature="0"
         id="rect822"
         d="m 108.57102,121.24142 102.67139,-5.24726 0.73745,14.42952 -102.67139,5.24725 z"
         inkscape:transform-center-x="-52.104069"
         style="opacity:1;fill:#292929;fill-opacity:0.98965526;stroke:none;stroke-width:3.18300724;stroke-linejoin:miter;stroke-miterlimit:4;stroke-dasharray:none;stroke-dashoffset:0;stroke-opacity:1;paint-order:markers fill stroke" />
      <path
         inkscape:connector-curvature="0"
         id="rect4515"
         d="M 102.93128,132.36554 39.533275,28.390543 51.869308,20.868736 115.26732,124.84374 Z"
         inkscape:transform-center-y="-18.494231"
         inkscape:transform-center-x="11.276728"
         style="opacity:1;fill:#292929;fill-opacity:0.98965526;stroke:none;stroke-width:3.46430254;stroke-linejoin:miter;stroke-miterlimit:4;stroke-dasharray:none;stroke-dashoffset:0;stroke-opacity:1;paint-order:markers fill stroke" />
    </g>
  </g>
</svg>
